<?xml version="1.0" encoding="UTF-8" standalone="no"?><!DOCTYPE svg PUBLIC "-//W3C//DTD SVG 1.1//EN" "http://www.w3.org/Graphics/SVG/1.1/DTD/svg11.dtd"><svg width="100%" height="100%" viewBox="0 0 254 56" version="1.1" xmlns="http://www.w3.org/2000/svg" xmlns:xlink="http://www.w3.org/1999/xlink" xml:space="preserve" xmlns:serif="http://www.serif.com/" style="fill-rule:evenodd;clip-rule:evenodd;stroke-linejoin:round;stroke-miterlimit:2;"><rect id="Plan-de-travail1" serif:id="Plan de travail1" x="0" y="0" width="253.01" height="55.71" style="fill:none;"/><g><path d="M252.92,14.176l0,-8.37l-76.66,-0l3.51,-3.28l-5,-2.17l-3.46,5.45l-167.55,-0l0,32.72l249.16,-0l0,-8l-14.28,-0l0,-5.77l12.51,-0l0,-5l-12.37,-0l0,-5.58l14.14,-0Zm-102.93,-4l-6.31,10.18l-6.29,-10.18l12.6,-0Zm-127.22,24l0,-4l-13.2,-0l0,-20.35l0,0.37l26.66,-0l-10.26,24l-3.2,-0.02Zm16.58,-18.18l3.5,8.54l-7,-0l3.5,-8.54Zm-7.45,18.24l1.87,-4.6l11.16,-0l1.88,4.6l-14.91,-0Zm21,-0l-10.26,-24l33,-0c-3.897,1.98 -6.586,5.75 -7.19,10.08c-0.462,3.282 0.186,6.627 1.84,9.5c1.151,1.86 2.759,3.396 4.67,4.46l-22.06,-0.04Zm36.29,-0c1.277,-0.786 2.438,-1.745 3.45,-2.85l-3.69,-3.77c-3.45,3.4 -6.59,3.15 -6.59,3.15c-2.067,0.058 -4.076,-0.701 -5.59,-2.11c-1.849,-1.985 -2.738,-4.685 -2.43,-7.38c0.84,-6 5.85,-7 5.85,-7c5,-1.09 8.53,2.77 8.53,2.77l3.69,-4.25c-1.028,-1.011 -2.184,-1.882 -3.44,-2.59l15.27,-0c-4.48,1.91 -6.56,6.91 -6.56,6.91c-1.583,3.843 -1.385,8.196 0.54,11.88c1.208,2.213 3.018,4.041 5.22,5.27l-14.25,-0.03Zm21.56,-3.52c-0.13,0.006 -0.26,0.009 -0.39,0.009c-4.602,-0 -8.39,-3.788 -8.39,-8.39c0,-4.603 3.788,-8.39 8.39,-8.39c4.603,-0 8.39,3.787 8.39,8.39c0,0 0,0 0,0.001c0.002,0.064 0.003,0.128 0.003,0.192c-0,4.429 -3.594,8.097 -8.023,8.188l0.02,-0Zm19.72,3.52l-12.52,-0c2.197,-1.229 4.001,-3.057 5.2,-5.27c1.924,-3.672 2.133,-8.011 0.57,-11.85c-1.562,-3.839 -2.08,-5 -6.57,-6.89l13.3,-0l0.02,24.01Zm20.67,-0l-14.99,-0l0,-15.76l7.51,11.28l7.49,-11.4l-0.01,15.88Zm12.66,-0l-6.86,-0l0,-24l6.86,-0l0,24Zm25.86,-0l-5.71,-0l0,-3.72l-14.39,-0l0,-5.66l12.48,-0l0,-5.07l-12.48,-0l0,-5.54l14.17,-0l0,-4l5.91,-0l0.02,23.99Zm10.78,-4l-5,-0l0,-15.72l4.34,-0c2.002,-0.053 3.959,0.599 5.53,1.84c1.339,1.192 2.217,2.817 2.48,4.59c0.345,1.951 -0.009,3.963 -1,5.68c-1.367,2.21 -3.771,3.576 -6.37,3.62l0.02,-0.01Zm19.51,4l-13.49,-0c3.715,-1.629 6.42,-4.96 7.25,-8.93c0.625,-2.941 0.274,-6.007 -1,-8.73c-1.44,-2.936 -3.943,-5.218 -7,-6.38l14.21,-0l0.03,24.04Zm13,-0l-7.14,-0l0,-24l7.14,-0l0,24Z" style="fill:#fff;fill-rule:nonzero;"/><path d="M0.5,43.976c0.004,-0.588 0.225,-1.155 0.62,-1.59c0.199,-0.209 0.437,-0.375 0.7,-0.49c0.283,-0.114 0.586,-0.172 0.89,-0.17c0.178,-0.005 0.356,0.012 0.53,0.05c0.155,0.03 0.306,0.077 0.45,0.14c0.136,0.057 0.263,0.131 0.38,0.22c0.12,0.085 0.234,0.178 0.34,0.28l-0.34,0.36c-0.178,-0.172 -0.38,-0.317 -0.6,-0.43c-0.239,-0.118 -0.503,-0.177 -0.77,-0.17c-0.455,-0.003 -0.891,0.186 -1.2,0.52c-0.16,0.161 -0.283,0.356 -0.36,0.57c-0.089,0.222 -0.133,0.46 -0.13,0.7c-0.004,0.243 0.04,0.484 0.13,0.71c0.077,0.214 0.2,0.409 0.36,0.57c0.15,0.16 0.33,0.289 0.53,0.38c0.21,0.097 0.439,0.145 0.67,0.14c0.266,0.009 0.53,-0.046 0.77,-0.16c0.251,-0.127 0.481,-0.292 0.68,-0.49l0.32,0.32c-0.109,0.114 -0.226,0.221 -0.35,0.32c-0.122,0.094 -0.257,0.171 -0.4,0.23c-0.141,0.074 -0.293,0.128 -0.45,0.16c-0.176,0.042 -0.358,0.062 -0.54,0.06c-0.302,0.003 -0.602,-0.058 -0.88,-0.18c-0.258,-0.111 -0.492,-0.27 -0.69,-0.47c-0.397,-0.438 -0.618,-1.009 -0.62,-1.6l-0.04,0.02Z" style="fill:#fff;fill-rule:nonzero;"/><path d="M5.38,46.116l0,-4.36l3.15,-0l0,0.46l-2.66,-0l0,1.47l2.38,-0l0,0.46l-2.38,-0l0,1.52l2.69,-0l0,0.45l-3.18,-0Z" style="fill:#fff;fill-rule:nonzero;"/><path d="M9.64,46.116l0,-4.36l0.51,-0l2.75,3.5l0,-3.5l0.48,-0l0,4.36l-0.39,-0l-2.84,-3.55l0,3.55l-0.51,-0Z" style="fill:#fff;fill-rule:nonzero;"/><path d="M14.33,42.246l0,-0.46l3.43,-0l0,0.46l-1.47,-0l0,3.87l-0.49,-0l0,-3.9l-1.47,0.03Z" style="fill:#fff;fill-rule:nonzero;"/><path d="M18.77,46.116l0,-4.36l1.88,-0c0.241,-0.003 0.481,0.034 0.71,0.11c0.198,0.071 0.379,0.184 0.53,0.33c0.107,0.104 0.189,0.23 0.24,0.37c0.061,0.153 0.091,0.316 0.09,0.48c0.003,0.167 -0.027,0.334 -0.09,0.49c-0.051,0.139 -0.133,0.266 -0.24,0.37c-0.107,0.112 -0.236,0.2 -0.38,0.26c-0.148,0.072 -0.307,0.123 -0.47,0.15l1.34,1.8l-0.6,-0l-1.27,-1.7l-1.24,-0l0,1.7l-0.5,-0Zm0.5,-2.13l1.33,-0c0.153,0.004 0.306,-0.02 0.45,-0.07c0.129,-0.036 0.251,-0.094 0.36,-0.17c0.101,-0.076 0.18,-0.175 0.23,-0.29c0.062,-0.114 0.093,-0.241 0.09,-0.37c0.01,-0.249 -0.102,-0.488 -0.3,-0.64c-0.241,-0.163 -0.529,-0.24 -0.82,-0.22l-1.34,-0l0,1.76Z" style="fill:#fff;fill-rule:nonzero;"/><path d="M23.36,46.116l0,-4.36l3.16,-0l0,0.46l-2.66,-0l0,1.47l2.38,-0l0,0.46l-2.38,-0l0,1.52l2.69,-0l0,0.45l-3.19,-0Z" style="fill:#fff;fill-rule:nonzero;"/><path d="M29.49,46.116l0,-4.36l1.51,-0c0.321,-0.007 0.64,0.048 0.94,0.16c0.272,0.109 0.522,0.264 0.74,0.46c0.205,0.212 0.365,0.464 0.47,0.74c0.11,0.273 0.164,0.565 0.16,0.86c0.005,0.294 -0.049,0.587 -0.16,0.86c-0.109,0.261 -0.273,0.496 -0.48,0.69c-0.212,0.202 -0.464,0.359 -0.74,0.46c-0.298,0.12 -0.618,0.178 -0.94,0.17l-1.5,-0.04Zm0.5,-0.45l1,-0c0.256,0.001 0.51,-0.043 0.75,-0.13c0.216,-0.079 0.411,-0.205 0.57,-0.37c0.16,-0.15 0.284,-0.335 0.36,-0.54c0.089,-0.216 0.134,-0.447 0.13,-0.68c0.005,-0.23 -0.039,-0.459 -0.13,-0.67c-0.076,-0.209 -0.199,-0.397 -0.36,-0.55c-0.157,-0.162 -0.348,-0.289 -0.56,-0.37c-0.242,-0.091 -0.5,-0.135 -0.76,-0.13l-1,-0l0,3.44Z" style="fill:#fff;fill-rule:nonzero;"/><path d="M34.45,46.116l0,-4.36l1.87,-0c0.245,-0.003 0.488,0.035 0.72,0.11c0.197,0.069 0.374,0.182 0.52,0.33c0.109,0.104 0.195,0.23 0.25,0.37c0.061,0.153 0.091,0.316 0.09,0.48c0.003,0.167 -0.027,0.334 -0.09,0.49c-0.056,0.137 -0.137,0.263 -0.24,0.37c-0.107,0.112 -0.236,0.2 -0.38,0.26c-0.148,0.072 -0.307,0.123 -0.47,0.15l1.34,1.8l-0.61,-0l-1.3,-1.67l-1.21,-0l0,1.67l-0.49,-0Zm0.49,-2.13l1.34,-0c0.153,0.003 0.306,-0.02 0.45,-0.07c0.129,-0.036 0.251,-0.094 0.36,-0.17c0.098,-0.078 0.177,-0.177 0.23,-0.29c0.062,-0.114 0.093,-0.241 0.09,-0.37c0.01,-0.249 -0.102,-0.488 -0.3,-0.64c-0.241,-0.163 -0.529,-0.24 -0.82,-0.22l-1.35,-0l0,1.76Z" style="fill:#fff;fill-rule:nonzero;"/><path d="M38.67,46.116l2,-4.39l0.48,-0l2,4.39l-0.53,-0l-0.51,-1.16l-2.42,-0l-0.54,1.16l-0.48,-0Zm1.21,-1.59l2,-0l-1,-2.23l-1,2.23Z" style="fill:#fff;fill-rule:nonzero;"/><path d="M44.05,46.116l0,-4.36l0.5,-0l1.6,2.41l1.58,-2.38l0.5,-0l0,4.33l-0.49,-0l0,-3.5l-1.59,2.34l-1.59,-2.33l0,3.49l-0.51,-0Z" style="fill:#fff;fill-rule:nonzero;"/><path d="M49.15,46.116l2,-4.39l0.47,-0l2,4.39l-0.53,-0l-0.51,-1.16l-2.43,-0l-0.48,1.16l-0.52,-0Zm1.21,-1.59l2,-0l-1,-2.23l-1,2.23Z" style="fill:#fff;fill-rule:nonzero;"/><path d="M54.23,42.246l0,-0.46l3.44,-0l0,0.46l-1.47,-0l0,3.87l-0.5,-0l0,-3.9l-1.47,0.03Z" style="fill:#fff;fill-rule:nonzero;"/><rect x="58.72" y="41.756" width="0.49" height="4.36" style="fill:#fff;fill-rule:nonzero;"/><path d="M60.38,43.976c-0.002,-0.294 0.053,-0.586 0.16,-0.86c0.107,-0.265 0.259,-0.508 0.45,-0.72c0.425,-0.437 1.011,-0.68 1.62,-0.67c0.313,-0.003 0.623,0.058 0.91,0.18c0.264,0.115 0.502,0.281 0.7,0.49c0.193,0.206 0.346,0.447 0.45,0.71c0.108,0.274 0.163,0.566 0.16,0.86c0,0.269 -0.047,0.537 -0.14,0.79c-0.085,0.246 -0.217,0.474 -0.39,0.67l0.58,0.48l-0.33,0.37l-0.58,-0.52c-0.184,0.149 -0.394,0.264 -0.62,0.34c-0.239,0.091 -0.494,0.135 -0.75,0.13c-0.606,0.013 -1.191,-0.231 -1.61,-0.67c-0.198,-0.207 -0.351,-0.452 -0.45,-0.72c-0.108,-0.274 -0.163,-0.566 -0.16,-0.86Zm0.51,-0c-0.004,0.239 0.04,0.478 0.13,0.7c0.077,0.214 0.2,0.409 0.36,0.57c0.152,0.166 0.335,0.298 0.54,0.39c0.218,0.093 0.453,0.141 0.69,0.14c0.187,-0.001 0.372,-0.028 0.55,-0.08c0.164,-0.055 0.317,-0.14 0.45,-0.25l-0.81,-0.69l0.33,-0.37l0.81,0.73c0.121,-0.154 0.215,-0.326 0.28,-0.51c0.064,-0.201 0.098,-0.41 0.1,-0.62c-0.001,-0.239 -0.045,-0.477 -0.13,-0.7c-0.084,-0.211 -0.206,-0.404 -0.36,-0.57c-0.155,-0.163 -0.342,-0.293 -0.55,-0.38c-0.212,-0.1 -0.445,-0.152 -0.68,-0.15c-0.237,-0.001 -0.472,0.047 -0.69,0.14c-0.205,0.091 -0.388,0.224 -0.54,0.39c-0.152,0.162 -0.27,0.352 -0.35,0.56c-0.089,0.222 -0.133,0.46 -0.13,0.7Z" style="fill:#fff;fill-rule:nonzero;"/><path d="M65.88,44.326l0,-2.54l0.5,-0l0,2.51c-0.027,0.394 0.098,0.785 0.35,1.09c0.547,0.498 1.394,0.498 1.94,-0c0.256,-0.295 0.383,-0.681 0.35,-1.07l0,-2.54l0.5,-0l0,2.5c0.003,0.285 -0.041,0.569 -0.13,0.84c-0.084,0.227 -0.213,0.434 -0.38,0.61c-0.161,0.16 -0.355,0.283 -0.57,0.36c-0.48,0.16 -0.999,0.16 -1.48,-0c-0.471,-0.157 -0.843,-0.528 -1,-1c-0.065,-0.248 -0.092,-0.504 -0.08,-0.76Z" style="fill:#fff;fill-rule:nonzero;"/><path d="M70.77,46.116l0,-4.36l3.15,-0l0,0.46l-2.66,-0l0,1.47l2.38,-0l0,0.46l-2.38,-0l0,1.52l2.69,-0l0,0.45l-3.18,-0Z" style="fill:#fff;fill-rule:nonzero;"/><path d="M76.9,46.116l0,-4.36l0.46,-0l2.75,3.5l0,-3.5l0.48,-0l0,4.36l-0.44,-0l-2.81,-3.58l0,3.58l-0.44,-0Z" style="fill:#fff;fill-rule:nonzero;"/><path d="M81.53,46.116l2,-4.39l0.46,-0l2,4.39l-0.53,-0l-0.51,-1.16l-2.4,-0l-0.51,1.16l-0.51,-0Zm1.22,-1.59l2,-0l-1,-2.23l-1,2.23Z" style="fill:#fff;fill-rule:nonzero;"/><path d="M86.6,42.246l0,-0.46l3.43,-0l0,0.46l-1.47,-0l0,3.87l-0.49,-0l0,-3.9l-1.47,0.03Z" style="fill:#fff;fill-rule:nonzero;"/><rect x="91.08" y="41.756" width="0.49" height="4.36" style="fill:#fff;fill-rule:nonzero;"/><path d="M92.74,43.976c-0.002,-0.294 0.053,-0.586 0.16,-0.86c0.107,-0.267 0.263,-0.511 0.46,-0.72c0.199,-0.208 0.437,-0.374 0.7,-0.49c0.288,-0.122 0.598,-0.183 0.91,-0.18c0.313,-0.004 0.623,0.057 0.91,0.18c0.264,0.115 0.502,0.281 0.7,0.49c0.197,0.204 0.35,0.445 0.45,0.71c0.108,0.274 0.163,0.566 0.16,0.86c0.003,0.294 -0.051,0.586 -0.16,0.86c-0.211,0.54 -0.629,0.975 -1.16,1.21c-0.285,0.13 -0.596,0.195 -0.91,0.19c-0.312,0.004 -0.622,-0.057 -0.91,-0.18c-0.261,-0.119 -0.499,-0.285 -0.7,-0.49c-0.191,-0.212 -0.343,-0.456 -0.45,-0.72c-0.108,-0.274 -0.163,-0.566 -0.16,-0.86Zm0.51,-0c-0.004,0.239 0.04,0.478 0.13,0.7c0.077,0.214 0.2,0.409 0.36,0.57c0.152,0.166 0.335,0.298 0.54,0.39c0.218,0.093 0.453,0.141 0.69,0.14c0.238,0.006 0.474,-0.042 0.69,-0.14c0.205,-0.088 0.389,-0.217 0.54,-0.38c0.155,-0.164 0.274,-0.358 0.35,-0.57c0.09,-0.222 0.135,-0.461 0.13,-0.7c0.004,-0.24 -0.041,-0.478 -0.13,-0.7c-0.076,-0.214 -0.199,-0.409 -0.36,-0.57c-0.151,-0.163 -0.335,-0.292 -0.54,-0.38c-0.215,-0.102 -0.451,-0.153 -0.69,-0.15c-0.237,-0.001 -0.472,0.047 -0.69,0.14c-0.205,0.091 -0.388,0.224 -0.54,0.39c-0.152,0.162 -0.27,0.352 -0.35,0.56c-0.089,0.222 -0.133,0.46 -0.13,0.7Z" style="fill:#fff;fill-rule:nonzero;"/><path d="M98.32,46.116l0,-4.36l0.46,-0l2.74,3.5l0,-3.5l0.48,-0l0,4.36l-0.39,-0l-2.81,-3.58l0,3.58l-0.48,-0Z" style="fill:#fff;fill-rule:nonzero;"/><path d="M102.95,46.116l2,-4.39l0.46,-0l2,4.39l-0.52,-0l-0.52,-1.16l-2.37,-0l-0.55,1.16l-0.5,-0Zm1.21,-1.59l2,-0l-1,-2.23l-1,2.23Z" style="fill:#fff;fill-rule:nonzero;"/><path d="M108.33,46.116l0,-4.36l0.49,-0l0,3.91l2.46,-0l0,0.45l-2.95,-0Z" style="fill:#fff;fill-rule:nonzero;"/><rect x="114.22" y="41.176" width="0.41" height="5.77" style="fill:#fff;fill-rule:nonzero;"/><path d="M117.9,46.116l0,-4.36l3.15,-0l0,0.46l-2.66,-0l0,1.47l2.38,-0l0,0.46l-2.38,-0l0,1.52l2.69,-0l0,0.45l-3.18,-0Zm1.23,-4.75l0.59,-0.9l0.5,0.23l-0.71,0.67l-0.38,-0Z" style="fill:#fff;fill-rule:nonzero;"/><path d="M121.96,43.976c0.007,-0.296 0.072,-0.589 0.19,-0.86c0.104,-0.268 0.261,-0.513 0.46,-0.72c0.193,-0.211 0.428,-0.378 0.69,-0.49c0.283,-0.114 0.586,-0.172 0.89,-0.17c0.182,-0.005 0.363,0.012 0.54,0.05c0.152,0.028 0.3,0.075 0.44,0.14c0.137,0.055 0.265,0.129 0.38,0.22c0.12,0.085 0.234,0.178 0.34,0.28l-0.34,0.36c-0.178,-0.172 -0.38,-0.317 -0.6,-0.43c-0.239,-0.118 -0.503,-0.177 -0.77,-0.17c-0.455,-0.003 -0.891,0.186 -1.2,0.52c-0.154,0.166 -0.276,0.359 -0.36,0.57c-0.084,0.223 -0.128,0.461 -0.13,0.7c0,0.242 0.044,0.483 0.13,0.71c0.084,0.21 0.206,0.403 0.36,0.57c0.15,0.16 0.33,0.289 0.53,0.38c0.21,0.097 0.439,0.145 0.67,0.14c0.266,0.009 0.53,-0.046 0.77,-0.16c0.236,-0.124 0.451,-0.283 0.64,-0.47l0.33,0.32c-0.112,0.114 -0.233,0.221 -0.36,0.32c-0.12,0.092 -0.251,0.169 -0.39,0.23c-0.146,0.072 -0.3,0.126 -0.46,0.16c-0.176,0.042 -0.358,0.062 -0.54,0.06c-0.299,0.004 -0.596,-0.057 -0.87,-0.18c-0.26,-0.107 -0.495,-0.267 -0.69,-0.47c-0.199,-0.207 -0.356,-0.452 -0.46,-0.72c-0.122,-0.281 -0.186,-0.584 -0.19,-0.89Z" style="fill:#fff;fill-rule:nonzero;"/><path d="M126.65,43.976c-0.002,-0.294 0.053,-0.586 0.16,-0.86c0.107,-0.265 0.259,-0.508 0.45,-0.72c0.425,-0.437 1.011,-0.68 1.62,-0.67c0.31,-0.004 0.616,0.057 0.9,0.18c0.268,0.112 0.51,0.279 0.71,0.49c0.193,0.206 0.346,0.447 0.45,0.71c0.103,0.275 0.158,0.566 0.16,0.86c0,0.295 -0.058,0.587 -0.17,0.86c-0.094,0.271 -0.247,0.517 -0.45,0.72c-0.198,0.208 -0.436,0.375 -0.7,0.49c-0.288,0.131 -0.603,0.196 -0.92,0.19c-0.603,0.01 -1.184,-0.233 -1.6,-0.67c-0.198,-0.207 -0.351,-0.452 -0.45,-0.72c-0.108,-0.274 -0.163,-0.566 -0.16,-0.86Zm0.51,-0c-0.004,0.239 0.04,0.478 0.13,0.7c0.077,0.214 0.2,0.409 0.36,0.57c0.152,0.166 0.335,0.298 0.54,0.39c0.218,0.093 0.453,0.141 0.69,0.14c0.238,0.006 0.474,-0.042 0.69,-0.14c0.205,-0.088 0.389,-0.217 0.54,-0.38c0.151,-0.167 0.27,-0.36 0.35,-0.57c0.085,-0.224 0.129,-0.461 0.13,-0.7c-0.001,-0.239 -0.045,-0.477 -0.13,-0.7c-0.084,-0.211 -0.206,-0.404 -0.36,-0.57c-0.157,-0.161 -0.344,-0.29 -0.55,-0.38c-0.215,-0.102 -0.451,-0.153 -0.69,-0.15c-0.233,-0 -0.465,0.047 -0.68,0.14c-0.205,0.091 -0.388,0.224 -0.54,0.39c-0.152,0.162 -0.27,0.352 -0.35,0.56c-0.089,0.222 -0.133,0.46 -0.13,0.7Z" style="fill:#fff;fill-rule:nonzero;"/><path d="M132.22,46.116l0,-4.36l0.5,-0l0,3.91l2.43,-0l0,0.45l-2.93,-0Z" style="fill:#fff;fill-rule:nonzero;"/><path d="M136.15,46.116l0,-4.36l3.15,-0l0,0.46l-2.66,-0l0,1.47l2.38,-0l0,0.46l-2.38,-0l0,1.52l2.69,-0l0,0.45l-3.18,-0Z" style="fill:#fff;fill-rule:nonzero;"/><path d="M142.01,45.526l0.3,-0.37c0.203,0.193 0.436,0.352 0.69,0.47c0.257,0.104 0.533,0.155 0.81,0.15c0.251,0.013 0.499,-0.061 0.7,-0.21c0.172,-0.122 0.273,-0.32 0.27,-0.53c0.017,-0.089 0.017,-0.181 0,-0.27c-0.037,-0.086 -0.096,-0.162 -0.17,-0.22c-0.105,-0.08 -0.223,-0.141 -0.35,-0.18c-0.182,-0.069 -0.369,-0.122 -0.56,-0.16c-0.224,-0.046 -0.445,-0.11 -0.66,-0.19c-0.162,-0.059 -0.314,-0.143 -0.45,-0.25c-0.115,-0.095 -0.207,-0.215 -0.27,-0.35c-0.062,-0.149 -0.093,-0.309 -0.09,-0.47c0.001,-0.166 0.039,-0.33 0.11,-0.48c0.071,-0.145 0.174,-0.271 0.3,-0.37c0.132,-0.112 0.285,-0.197 0.45,-0.25c0.184,-0.061 0.377,-0.091 0.57,-0.09c0.286,-0.007 0.57,0.037 0.84,0.13c0.251,0.096 0.486,0.228 0.7,0.39l-0.29,0.38c-0.184,-0.149 -0.39,-0.271 -0.61,-0.36c-0.209,-0.073 -0.428,-0.11 -0.65,-0.11c-0.242,-0.01 -0.481,0.06 -0.68,0.2c-0.155,0.123 -0.247,0.311 -0.25,0.51c-0.016,0.092 -0.016,0.187 0,0.28c0.045,0.087 0.106,0.165 0.18,0.23c0.112,0.081 0.237,0.142 0.37,0.18c0.192,0.069 0.39,0.123 0.59,0.16c0.387,0.066 0.753,0.22 1.07,0.45c0.231,0.196 0.359,0.487 0.35,0.79c0.002,0.176 -0.036,0.35 -0.11,0.51c-0.077,0.149 -0.182,0.281 -0.31,0.39c-0.139,0.112 -0.298,0.197 -0.47,0.25c-0.195,0.054 -0.397,0.081 -0.6,0.08c-0.34,0.01 -0.679,-0.044 -1,-0.16c-0.287,-0.133 -0.55,-0.312 -0.78,-0.53Z" style="fill:#fff;fill-rule:nonzero;"/><path d="M146.3,44.326l0,-2.54l0.49,-0l0,2.51c-0.022,0.394 0.103,0.783 0.35,1.09c0.263,0.265 0.628,0.404 1,0.38c0.372,0.033 0.74,-0.103 1,-0.37c0.259,-0.294 0.389,-0.68 0.36,-1.07l0,-2.54l0.49,-0l0,2.5c0.008,0.285 -0.036,0.57 -0.13,0.84c-0.081,0.226 -0.206,0.434 -0.37,0.61c-0.163,0.163 -0.361,0.286 -0.58,0.36c-0.237,0.082 -0.488,0.123 -0.74,0.12c-0.251,0.002 -0.502,-0.038 -0.74,-0.12c-0.453,-0.166 -0.802,-0.538 -0.94,-1c-0.108,-0.244 -0.172,-0.504 -0.19,-0.77Z" style="fill:#fff;fill-rule:nonzero;"/><path d="M151.15,46.116l0,-4.36l1.63,-0c0.228,-0.005 0.454,0.029 0.67,0.1c0.191,0.051 0.369,0.143 0.52,0.27c0.14,0.121 0.253,0.271 0.33,0.44c0.083,0.182 0.124,0.38 0.12,0.58c0.005,0.215 -0.043,0.428 -0.14,0.62c-0.089,0.175 -0.215,0.328 -0.37,0.45c-0.165,0.123 -0.351,0.215 -0.55,0.27c-0.214,0.062 -0.436,0.092 -0.66,0.09l-1.05,-0l0,1.54l-0.5,-0Zm0.5,-2l1.07,-0c0.166,-0.001 0.331,-0.025 0.49,-0.07c0.138,-0.042 0.267,-0.11 0.38,-0.2c0.107,-0.078 0.193,-0.181 0.25,-0.3c0.054,-0.127 0.081,-0.263 0.08,-0.4c0.016,-0.275 -0.103,-0.54 -0.32,-0.71c-0.253,-0.162 -0.549,-0.242 -0.85,-0.23l-1.1,-0l0,1.91Z" style="fill:#fff;fill-rule:nonzero;"/><path d="M155.43,46.116l0,-4.36l3.15,-0l0,0.46l-2.65,-0l0,1.47l2.37,-0l0,0.46l-2.37,-0l0,1.52l2.68,-0l0,0.45l-3.18,-0Zm1.23,-4.75l0.6,-0.9l0.5,0.23l-0.71,0.67l-0.39,-0Z" style="fill:#fff;fill-rule:nonzero;"/><path d="M159.69,46.116l0,-4.36l1.88,-0c0.242,-0.003 0.482,0.034 0.71,0.11c0.199,0.069 0.381,0.182 0.53,0.33c0.107,0.104 0.189,0.23 0.24,0.37c0.061,0.153 0.091,0.316 0.09,0.48c0.003,0.167 -0.027,0.334 -0.09,0.49c-0.114,0.284 -0.337,0.511 -0.62,0.63c-0.148,0.072 -0.307,0.123 -0.47,0.15l1.34,1.79l-0.6,-0l-1.27,-1.7l-1.28,-0l0,1.71l-0.46,-0Zm0.5,-2.13l1.34,-0c0.15,0.003 0.299,-0.02 0.44,-0.07c0.129,-0.036 0.251,-0.094 0.36,-0.17c0.101,-0.076 0.18,-0.175 0.23,-0.29c0.062,-0.114 0.093,-0.241 0.09,-0.37c0.01,-0.249 -0.102,-0.488 -0.3,-0.64c-0.241,-0.163 -0.529,-0.24 -0.82,-0.22l-1.38,-0l0.04,1.76Z" style="fill:#fff;fill-rule:nonzero;"/><rect x="164.33" y="41.756" width="0.49" height="4.36" style="fill:#fff;fill-rule:nonzero;"/><path d="M166.15,46.116l0,-4.36l3.15,-0l0,0.46l-2.66,-0l0,1.47l2.38,-0l0,0.46l-2.38,-0l0,1.52l2.69,-0l0,0.45l-3.18,-0Z" style="fill:#fff;fill-rule:nonzero;"/><path d="M170.37,44.326l0,-2.54l0.5,-0l0,2.51c-0.027,0.394 0.098,0.785 0.35,1.09c0.547,0.498 1.394,0.498 1.94,-0c0.251,-0.298 0.377,-0.682 0.35,-1.07l0,-2.54l0.5,-0l0,2.5c0.005,0.286 -0.043,0.57 -0.14,0.84c-0.077,0.228 -0.203,0.436 -0.37,0.61c-0.161,0.16 -0.355,0.283 -0.57,0.36c-0.48,0.16 -0.999,0.16 -1.48,-0c-0.214,-0.077 -0.409,-0.2 -0.57,-0.36c-0.168,-0.171 -0.297,-0.375 -0.38,-0.6c-0.086,-0.258 -0.13,-0.528 -0.13,-0.8Z" style="fill:#fff;fill-rule:nonzero;"/><path d="M175.26,46.116l0,-4.36l1.89,-0c0.245,-0.003 0.488,0.035 0.72,0.11c0.195,0.071 0.373,0.184 0.52,0.33c0.109,0.104 0.195,0.23 0.25,0.37c0.061,0.153 0.091,0.316 0.09,0.48c0.003,0.167 -0.027,0.334 -0.09,0.49c-0.056,0.137 -0.137,0.263 -0.24,0.37c-0.109,0.11 -0.238,0.198 -0.38,0.26c-0.149,0.071 -0.307,0.121 -0.47,0.15l1.34,1.79l-0.61,-0l-1.26,-1.7l-1.27,-0l0,1.71l-0.49,-0Zm0.49,-2.13l1.34,-0c0.153,0.003 0.306,-0.021 0.45,-0.07c0.126,-0.036 0.244,-0.094 0.35,-0.17c0.101,-0.078 0.183,-0.177 0.24,-0.29c0.054,-0.116 0.081,-0.242 0.08,-0.37c0.009,-0.247 -0.098,-0.484 -0.29,-0.64c-0.242,-0.161 -0.53,-0.238 -0.82,-0.22l-1.35,-0l0,1.76Z" style="fill:#fff;fill-rule:nonzero;"/><path d="M179.85,46.116l0,-4.36l3.15,-0l0,0.46l-2.66,-0l0,1.47l2.38,-0l0,0.46l-2.38,-0l0,1.52l2.69,-0l0,0.45l-3.18,-0Z" style="fill:#fff;fill-rule:nonzero;"/><path d="M185.98,46.116l0,-4.36l1.51,-0c0.321,-0.005 0.64,0.049 0.94,0.16c0.271,0.111 0.521,0.267 0.74,0.46c0.2,0.197 0.36,0.432 0.47,0.69c0.113,0.272 0.171,0.565 0.17,0.86c0.002,0.295 -0.056,0.587 -0.17,0.86c-0.106,0.26 -0.266,0.495 -0.47,0.69c-0.214,0.2 -0.465,0.356 -0.74,0.46c-0.299,0.118 -0.618,0.176 -0.94,0.17l-1.51,0.01Zm0.49,-0.45l1,-0c0.256,0.001 0.51,-0.043 0.75,-0.13c0.215,-0.082 0.409,-0.208 0.57,-0.37c0.16,-0.15 0.284,-0.335 0.36,-0.54c0.089,-0.216 0.134,-0.447 0.13,-0.68c0.005,-0.23 -0.039,-0.459 -0.13,-0.67c-0.076,-0.209 -0.199,-0.397 -0.36,-0.55c-0.161,-0.163 -0.355,-0.289 -0.57,-0.37c-0.239,-0.091 -0.494,-0.135 -0.75,-0.13l-1,-0l0,3.44Z" style="fill:#fff;fill-rule:nonzero;"/><path d="M190.59,42.986c0.132,-0.04 0.25,-0.117 0.34,-0.22c0.071,-0.095 0.1,-0.214 0.08,-0.33l-0.22,-0l0,-0.65l0.57,-0l0,0.56c0.004,0.031 0.006,0.062 0.006,0.093c0,0.392 -0.304,0.724 -0.696,0.757l-0.08,-0.21Z" style="fill:#fff;fill-rule:nonzero;"/><path d="M192.08,46.116l2,-4.39l0.46,-0l2,4.39l-0.53,-0l-0.51,-1.16l-2.35,-0l-0.51,1.16l-0.56,-0Zm1.21,-1.59l2,-0l-1,-2.23l-1,2.23Z" style="fill:#fff;fill-rule:nonzero;"/><path d="M197.46,46.116l0,-4.36l1.87,-0c0.245,-0.003 0.488,0.035 0.72,0.11c0.198,0.071 0.379,0.184 0.53,0.33c0.103,0.107 0.184,0.232 0.24,0.37c0.061,0.153 0.091,0.316 0.09,0.48c0.003,0.167 -0.027,0.334 -0.09,0.49c-0.056,0.137 -0.137,0.263 -0.24,0.37c-0.107,0.112 -0.236,0.2 -0.38,0.26c-0.148,0.072 -0.307,0.123 -0.47,0.15l1.34,1.79l-0.61,-0l-1.26,-1.7l-1.24,-0l0,1.71l-0.5,-0Zm0.5,-2.13l1.33,-0c0.153,0.004 0.306,-0.02 0.45,-0.07c0.129,-0.036 0.251,-0.094 0.36,-0.17c0.098,-0.078 0.177,-0.177 0.23,-0.29c0.062,-0.114 0.093,-0.241 0.09,-0.37c0.01,-0.249 -0.102,-0.488 -0.3,-0.64c-0.241,-0.163 -0.529,-0.24 -0.82,-0.22l-1.34,-0l0,1.76Z" style="fill:#fff;fill-rule:nonzero;"/><path d="M201.74,42.246l0,-0.46l3.41,-0l0,0.46l-1.47,-0l0,3.87l-0.49,-0l0,-3.9l-1.45,0.03Z" style="fill:#fff;fill-rule:nonzero;"/><path d="M208.04,46.116l0,-4.36l1.52,-0c0.321,-0.005 0.64,0.049 0.94,0.16c0.269,0.109 0.516,0.264 0.73,0.46c0.207,0.193 0.371,0.428 0.48,0.69c0.113,0.272 0.171,0.565 0.17,0.86c0.002,0.295 -0.056,0.587 -0.17,0.86c-0.105,0.263 -0.269,0.499 -0.48,0.69c-0.209,0.202 -0.457,0.358 -0.73,0.46c-0.299,0.118 -0.618,0.176 -0.94,0.17l-1.52,0.01Zm0.5,-0.45l1,-0c0.256,-0.001 0.509,-0.045 0.75,-0.13c0.422,-0.162 0.759,-0.492 0.93,-0.91c0.081,-0.218 0.122,-0.448 0.12,-0.68c0.003,-0.229 -0.038,-0.456 -0.12,-0.67c-0.084,-0.205 -0.206,-0.391 -0.36,-0.55c-0.163,-0.161 -0.357,-0.286 -0.57,-0.37c-0.239,-0.091 -0.494,-0.135 -0.75,-0.13l-1,-0l0,3.44Z" style="fill:#fff;fill-rule:nonzero;"/><path d="M213,46.116l0,-4.36l1.88,-0c0.242,-0.003 0.482,0.034 0.71,0.11c0.199,0.069 0.381,0.182 0.53,0.33c0.107,0.104 0.189,0.23 0.24,0.37c0.061,0.153 0.091,0.316 0.09,0.48c0.003,0.167 -0.027,0.334 -0.09,0.49c-0.114,0.284 -0.337,0.511 -0.62,0.63c-0.148,0.072 -0.307,0.123 -0.47,0.15l1.34,1.79l-0.6,-0l-1.27,-1.7l-1.24,-0l0,1.71l-0.5,-0Zm0.5,-2.13l1.34,-0c0.15,0.003 0.299,-0.02 0.44,-0.07c0.129,-0.036 0.251,-0.094 0.36,-0.17c0.101,-0.076 0.18,-0.175 0.23,-0.29c0.062,-0.114 0.093,-0.241 0.09,-0.37c0.01,-0.249 -0.102,-0.488 -0.3,-0.64c-0.241,-0.163 -0.529,-0.24 -0.82,-0.22l-1.34,-0l0,1.76Z" style="fill:#fff;fill-rule:nonzero;"/><path d="M217.22,46.116l2,-4.39l0.46,-0l2,4.39l-0.53,-0l-0.52,-1.16l-2.37,-0l-0.52,1.16l-0.52,-0Zm1.21,-1.59l2,-0l-1,-2.23l-1,2.23Z" style="fill:#fff;fill-rule:nonzero;"/><path d="M222.6,46.116l0,-4.36l0.5,-0l1.59,2.38l1.59,-2.38l0.5,-0l0,4.36l-0.5,-0l0,-3.5l-1.58,2.34l-1.59,-2.33l0,3.49l-0.51,-0Z" style="fill:#fff;fill-rule:nonzero;"/><path d="M227.72,46.116l2,-4.39l0.43,-0l2,4.39l-0.53,-0l-0.51,-1.16l-2.38,-0l-0.51,1.16l-0.5,-0Zm1.21,-1.59l2,-0l-1,-2.23l-1,2.23Z" style="fill:#fff;fill-rule:nonzero;"/><path d="M232.79,42.246l0,-0.46l3.43,-0l0,0.46l-1.47,-0l0,3.87l-0.5,-0l0,-3.9l-1.46,0.03Z" style="fill:#fff;fill-rule:nonzero;"/><rect x="237.27" y="41.756" width="0.49" height="4.36" style="fill:#fff;fill-rule:nonzero;"/><path d="M238.93,43.976c-0.002,-0.294 0.053,-0.586 0.16,-0.86c0.107,-0.267 0.263,-0.511 0.46,-0.72c0.199,-0.208 0.437,-0.374 0.7,-0.49c0.288,-0.122 0.598,-0.183 0.91,-0.18c0.313,-0.004 0.623,0.057 0.91,0.18c0.264,0.115 0.502,0.281 0.7,0.49c0.193,0.206 0.346,0.447 0.45,0.71c0.108,0.274 0.163,0.566 0.16,0.86c-0.002,0.294 0,-0 0,-0c0.004,0.269 -0.04,0.536 -0.13,0.79c-0.089,0.244 -0.221,0.471 -0.39,0.67l0.57,0.48l-0.33,0.37l-0.57,-0.52c-0.189,0.148 -0.402,0.263 -0.63,0.34c-0.239,0.091 -0.494,0.135 -0.75,0.13c-0.312,0.005 -0.622,-0.057 -0.91,-0.18c-0.261,-0.119 -0.499,-0.285 -0.7,-0.49c-0.191,-0.212 -0.343,-0.456 -0.45,-0.72c-0.108,-0.274 -0.163,-0.566 -0.16,-0.86Zm0.51,-0c-0.004,0.239 0.04,0.478 0.13,0.7c0.077,0.214 0.2,0.409 0.36,0.57c0.152,0.166 0.335,0.298 0.54,0.39c0.218,0.093 0.453,0.141 0.69,0.14c0.187,-0.001 0.372,-0.028 0.55,-0.08c0.164,-0.055 0.317,-0.14 0.45,-0.25l-0.81,-0.69l0.33,-0.37l0.81,0.73c0.121,-0.154 0.215,-0.326 0.28,-0.51c0.069,-0.2 0.103,-0.409 0.1,-0.62c0.004,-0.24 -0.041,-0.478 -0.13,-0.7c-0.076,-0.214 -0.199,-0.409 -0.36,-0.57c-0.151,-0.163 -0.335,-0.292 -0.54,-0.38c-0.215,-0.102 -0.451,-0.153 -0.69,-0.15c-0.237,-0.001 -0.472,0.047 -0.69,0.14c-0.205,0.091 -0.388,0.224 -0.54,0.39c-0.152,0.162 -0.27,0.352 -0.35,0.56c-0.089,0.222 -0.133,0.46 -0.13,0.7Z" style="fill:#fff;fill-rule:nonzero;"/><path d="M244.44,44.326l0,-2.54l0.49,-0l0,2.51c-0.027,0.394 0.098,0.785 0.35,1.09c0.547,0.498 1.394,0.498 1.94,-0c0.259,-0.294 0.389,-0.68 0.36,-1.07l0,-2.54l0.49,-0l0,2.5c0.003,0.285 -0.041,0.569 -0.13,0.84c-0.081,0.226 -0.206,0.434 -0.37,0.61c-0.164,0.161 -0.362,0.283 -0.58,0.36c-0.48,0.16 -0.999,0.16 -1.48,-0c-0.453,-0.166 -0.802,-0.538 -0.94,-1c-0.086,-0.244 -0.13,-0.501 -0.13,-0.76Z" style="fill:#fff;fill-rule:nonzero;"/><path d="M249.32,46.116l0,-4.36l3.15,-0l0,0.46l-2.66,-0l0,1.47l2.34,-0l0,0.46l-2.38,-0l0,1.52l2.69,-0l0,0.45l-3.14,-0Z" style="fill:#fff;fill-rule:nonzero;"/><path d="M201.63,54.346l0.46,-0.54c0.192,0.168 0.408,0.306 0.64,0.41c0.231,0.099 0.48,0.147 0.73,0.14c0.197,0.015 0.394,-0.034 0.56,-0.14c0.132,-0.086 0.212,-0.233 0.21,-0.39c0.017,-0.069 0.017,-0.141 0,-0.21c-0.031,-0.071 -0.083,-0.13 -0.15,-0.17c-0.092,-0.062 -0.193,-0.11 -0.3,-0.14l-0.49,-0.14l-0.61,-0.2c-0.167,-0.044 -0.324,-0.122 -0.46,-0.23c-0.117,-0.099 -0.213,-0.222 -0.28,-0.36c-0.065,-0.159 -0.095,-0.329 -0.09,-0.5c-0.009,-0.35 0.143,-0.685 0.41,-0.91c0.141,-0.114 0.3,-0.202 0.47,-0.26c0.194,-0.062 0.397,-0.093 0.6,-0.09c0.293,-0.008 0.585,0.04 0.86,0.14c0.259,0.095 0.499,0.234 0.71,0.41l-0.4,0.57c-0.182,-0.131 -0.38,-0.239 -0.59,-0.32c-0.189,-0.07 -0.388,-0.108 -0.59,-0.11c-0.185,-0.013 -0.369,0.04 -0.52,0.15c-0.122,0.078 -0.195,0.215 -0.19,0.36c-0.015,0.072 -0.015,0.147 0,0.22c0.037,0.07 0.092,0.129 0.16,0.17c0.1,0.062 0.208,0.109 0.32,0.14l0.5,0.16l0.61,0.2c0.162,0.044 0.312,0.122 0.44,0.23c0.115,0.097 0.204,0.221 0.26,0.36c0.063,0.145 0.093,0.302 0.09,0.46c0.008,0.189 -0.03,0.378 -0.11,0.55c-0.074,0.159 -0.184,0.299 -0.32,0.41c-0.144,0.116 -0.311,0.201 -0.49,0.25c-0.204,0.062 -0.416,0.092 -0.63,0.09c-0.341,0.005 -0.681,-0.056 -1,-0.18c-0.301,-0.124 -0.576,-0.304 -0.81,-0.53Z" style="fill:#ed2124;fill-rule:nonzero;"/><path d="M205.6,54.996l1.92,-4.37l0.7,-0l1.91,4.37l-0.8,-0l-0.44,-1l-2.06,-0l-0.44,1l-0.79,-0Zm1.51,-1.72l1.5,-0l-0.75,-1.74l-0.75,1.74Z" style="fill:#ed2124;fill-rule:nonzero;"/><rect x="211.01" y="50.656" width="0.76" height="4.34" style="fill:#ed2124;fill-rule:nonzero;"/><path d="M213.01,54.996l0,-4.34l0.71,-0l2.33,3l0,-3l0.75,-0l0,4.34l-0.65,-0l-2.4,-3.09l0,3.09l-0.74,-0Z" style="fill:#ed2124;fill-rule:nonzero;"/><path d="M217.69,51.346l0,-0.69l3.52,-0l0,0.69l-1.38,-0l0,3.65l-0.77,-0l0,-3.65l-1.37,-0Z" style="fill:#ed2124;fill-rule:nonzero;"/><rect x="221.85" y="52.766" width="1.83" height="0.7" style="fill:#ed2124;fill-rule:nonzero;"/><path d="M224.62,54.996l0,-4.34l3.22,-0l0,0.69l-2.45,-0l0,1.11l2.17,-0l0,0.66l-2.17,-0l0,1.16l2.48,-0l0,0.69l-3.25,0.03Zm1.16,-4.7l0.66,-1l0.68,0.3l-0.75,0.72l-0.59,-0.02Z" style="fill:#ed2124;fill-rule:nonzero;"/><path d="M228.55,51.346l0,-0.69l3.53,-0l0,0.69l-1.38,-0l0,3.65l-0.77,-0l0,-3.65l-1.38,-0Z" style="fill:#ed2124;fill-rule:nonzero;"/><rect x="233.01" y="50.656" width="0.77" height="4.34" style="fill:#ed2124;fill-rule:nonzero;"/><path d="M235.02,54.996l0,-4.34l3.22,-0l0,0.69l-2.46,-0l0,1.11l2.18,-0l0,0.66l-2.18,-0l0,1.16l2.49,-0l0,0.69l-3.25,0.03Z" style="fill:#ed2124;fill-rule:nonzero;"/><path d="M239.26,54.996l0,-4.34l0.71,-0l2.33,3l0,-3l0.75,-0l0,4.34l-0.64,-0l-2.4,-3.09l0,3.09l-0.75,-0Z" style="fill:#ed2124;fill-rule:nonzero;"/><path d="M244.24,54.996l0,-4.34l0.71,-0l2.33,3l0,-3l0.75,-0l0,4.34l-0.64,-0l-2.39,-3.09l0,3.09l-0.76,-0Z" style="fill:#ed2124;fill-rule:nonzero;"/><path d="M249.23,54.996l0,-4.34l3.22,-0l0,0.69l-2.46,-0l0,1.11l2.16,-0l0,0.66l-2.18,-0l0,1.16l2.49,-0l0,0.69l-3.23,0.03Z" style="fill:#ed2124;fill-rule:nonzero;"/><path d="M251.23,14.176l0,-8.37l-76.67,-0l3.52,-3.28l-5,-2.17l-3.47,5.45l-167.55,-0l0,32.72l249.17,-0l0,-8l-14.28,-0l0,-5.77l12.52,-0l0,-5l-12.38,-0l0,-5.58l14.14,-0Zm-102.94,-4l-6.3,10.18l-6.3,-10.18l12.6,-0Zm-127.21,24l0,-4l-13.21,-0l0,-20.35l0,0.37l26.67,-0l-10.26,24l-3.2,-0.02Zm16.58,-18.18l3.49,8.54l-7,-0l3.51,-8.54Zm-7.45,18.24l1.87,-4.6l11.16,-0l1.91,4.6l-14.94,-0Zm21,-0l-10.25,-24l32.94,-0c-3.895,1.98 -6.581,5.751 -7.18,10.08c-0.462,3.282 0.186,6.627 1.84,9.5c1.147,1.863 2.756,3.4 4.67,4.46l-22.02,-0.04Zm36.29,-0c1.279,-0.787 2.444,-1.746 3.46,-2.85l-3.71,-3.77c-3.44,3.4 -6.58,3.15 -6.58,3.15c-2.067,0.061 -4.078,-0.698 -5.59,-2.11c-1.849,-1.985 -2.738,-4.685 -2.43,-7.38c0.83,-6 5.84,-7 5.84,-7c5,-1.09 8.53,2.77 8.53,2.77l3.7,-4.25c-1.032,-1.01 -2.192,-1.88 -3.45,-2.59l15.28,-0c-4.49,1.91 -6.57,6.91 -6.57,6.91c-1.577,3.845 -1.376,8.197 0.55,11.88c1.205,2.216 3.016,4.044 5.22,5.27l-14.25,-0.03Zm21.57,-3.52c-0.13,0.006 -0.26,0.009 -0.39,0.009c-4.602,-0 -8.39,-3.788 -8.39,-8.39c0,-4.603 3.788,-8.39 8.39,-8.39c4.603,-0 8.39,3.787 8.39,8.39c0,0 0,0 0,0.001c0.002,0.064 0.003,0.127 0.003,0.191c-0,4.434 -3.6,8.103 -8.033,8.189l0.03,-0Zm19.72,3.52l-12.5,-0c2.202,-1.229 4.012,-3.057 5.22,-5.27c1.907,-3.68 2.094,-8.02 0.51,-11.85c-1.583,-3.83 -2.08,-5 -6.56,-6.89l13.3,-0l0.03,24.01Zm20.67,-0l-15,-0l0,-15.76l7.51,11.28l7.45,-11.4l0.04,15.88Zm12.66,-0l-6.86,-0l0,-24l6.86,-0l0,24Zm25.85,-0l-5.7,-0l0,-3.72l-14.41,-0l0,-5.66l12.48,-0l0,-5.07l-12.48,-0l0,-5.54l14.18,-0l0,-4l5.9,-0l0.03,23.99Zm10.78,-4l-4.95,-0l0,-15.72l4.35,-0c1.999,-0.053 3.953,0.599 5.52,1.84c1.339,1.192 2.217,2.817 2.48,4.59c0.343,1.951 -0.012,3.962 -1,5.68c-1.382,2.224 -3.811,3.591 -6.43,3.62l0.03,-0.01Zm19.51,4l-13.5,-0c3.719,-1.626 6.427,-4.958 7.26,-8.93c0.621,-2.941 0.27,-6.006 -1,-8.73c-1.434,-2.94 -3.94,-5.224 -7,-6.38l14.21,-0l0.03,24.04Zm13,-0l-7.11,-0l0,-24l7.14,-0l-0.03,24Z" style="fill-rule:nonzero;"/><path d="M249.66,14.176l0,-8.37l-76.66,-0l3.51,-3.28l-5,-2.17l-3.46,5.45l-167.55,-0l0,32.72l249.16,-0l0,-8l-14.28,-0l0,-5.77l12.53,-0l0,-5l-12.39,-0l0,-5.58l14.14,-0Zm-102.93,-4l-6.31,10.18l-6.27,-10.16l12.58,-0.02Zm-127.21,24l0,-4l-13.21,-0l0,-20.35l0,0.37l26.66,-0l-10.25,24l-3.2,-0.02Zm16.57,-18.18l3.5,8.54l-7,-0l3.5,-8.54Zm-7.45,18.24l1.87,-4.6l11.16,-0l1.89,4.6l-14.92,-0Zm21,-0l-10.26,-24l33,-0c-3.902,1.963 -6.605,5.717 -7.23,10.04c-0.461,3.284 0.19,6.629 1.85,9.5c1.146,1.861 2.751,3.397 4.66,4.46l-22.02,-0Zm36.29,-0c1.277,-0.786 2.438,-1.745 3.45,-2.85l-3.67,-3.77c-3.45,3.4 -6.59,3.15 -6.59,3.15c-2.067,0.058 -4.076,-0.701 -5.59,-2.11c-1.844,-1.988 -2.729,-4.686 -2.42,-7.38c0.83,-6 5.84,-7 5.84,-7c5,-1.09 8.53,2.77 8.53,2.77l3.67,-4.26c-1.028,-1.011 -2.184,-1.882 -3.44,-2.59l15.27,-0c-4.48,1.92 -6.56,6.92 -6.56,6.92c-1.583,3.843 -1.385,8.196 0.54,11.88c1.204,2.199 3.003,4.015 5.19,5.24l-14.22,-0Zm21.57,-3.52c-0.13,0.006 -0.26,0.009 -0.39,0.009c-4.602,-0 -8.39,-3.788 -8.39,-8.39c0,-4.603 3.788,-8.39 8.39,-8.39c4.603,-0 8.39,3.787 8.39,8.39c0,0 0,0 0,0.001c0.002,0.064 0.003,0.128 0.003,0.192c-0,4.429 -3.594,8.097 -8.023,8.188l0.02,-0Zm19.72,3.52l-12.53,-0c2.205,-1.226 4.015,-3.054 5.22,-5.27c1.918,-3.675 2.119,-8.014 0.55,-11.85c-1.568,-3.836 -2.08,-5 -6.57,-6.89l13.31,-0l0.02,24.01Zm20.66,-0l-15,-0l0,-15.76l7.51,11.28l7.45,-11.4l0.04,15.88Zm12.66,-0l-6.86,-0l0,-24l6.86,-0l0,24Zm25.86,-0l-5.71,-0l0,-3.72l-14.39,-0l0,-5.66l12.48,-0l0,-5.07l-12.48,-0l0,-5.54l14.17,-0l0,-4l5.91,-0l0.02,23.99Zm10.78,-4l-5,-0l0,-15.72l4.35,-0c1.999,-0.052 3.953,0.6 5.52,1.84c1.339,1.192 2.217,2.817 2.48,4.59c0.345,1.951 -0.009,3.963 -1,5.68c-1.369,2.213 -3.778,3.58 -6.38,3.62l0.03,-0.01Zm19.51,4l-13.49,-0c3.715,-1.629 6.42,-4.96 7.25,-8.93c0.625,-2.941 0.274,-6.007 -1,-8.73c-1.44,-2.936 -3.943,-5.218 -7,-6.38l14.21,-0l0.03,24.04Zm13,-0l-7.14,-0l0,-24l7.14,-0l0,24Z" style="fill:#fff;fill-rule:nonzero;"/><clipPath id="_clip1"><path d="M249.66,14.176l0,-8.37l-76.66,-0l3.51,-3.28l-5,-2.17l-3.46,5.45l-167.55,-0l0,32.72l249.16,-0l0,-8l-14.28,-0l0,-5.77l12.53,-0l0,-5l-12.39,-0l0,-5.58l14.14,-0Zm-102.93,-4l-6.31,10.18l-6.27,-10.16l12.58,-0.02Zm-127.21,24l0,-4l-13.21,-0l0,-20.35l0,0.37l26.66,-0l-10.25,24l-3.2,-0.02Zm16.57,-18.18l3.5,8.54l-7,-0l3.5,-8.54Zm-7.45,18.24l1.87,-4.6l11.16,-0l1.89,4.6l-14.92,-0Zm21,-0l-10.26,-24l33,-0c-3.902,1.963 -6.605,5.717 -7.23,10.04c-0.461,3.284 0.19,6.629 1.85,9.5c1.146,1.861 2.751,3.397 4.66,4.46l-22.02,-0Zm36.29,-0c1.277,-0.786 2.438,-1.745 3.45,-2.85l-3.67,-3.77c-3.45,3.4 -6.59,3.15 -6.59,3.15c-2.067,0.058 -4.076,-0.701 -5.59,-2.11c-1.844,-1.988 -2.729,-4.686 -2.42,-7.38c0.83,-6 5.84,-7 5.84,-7c5,-1.09 8.53,2.77 8.53,2.77l3.67,-4.26c-1.028,-1.011 -2.184,-1.882 -3.44,-2.59l15.27,-0c-4.48,1.92 -6.56,6.92 -6.56,6.92c-1.583,3.843 -1.385,8.196 0.54,11.88c1.204,2.199 3.003,4.015 5.19,5.24l-14.22,-0Zm21.57,-3.52c-0.13,0.006 -0.26,0.009 -0.39,0.009c-4.602,-0 -8.39,-3.788 -8.39,-8.39c0,-4.603 3.788,-8.39 8.39,-8.39c4.603,-0 8.39,3.787 8.39,8.39c0,0 0,0 0,0.001c0.002,0.064 0.003,0.128 0.003,0.192c-0,4.429 -3.594,8.097 -8.023,8.188l0.02,-0Zm19.72,3.52l-12.53,-0c2.205,-1.226 4.015,-3.054 5.22,-5.27c1.918,-3.675 2.119,-8.014 0.55,-11.85c-1.568,-3.836 -2.08,-5 -6.57,-6.89l13.31,-0l0.02,24.01Zm20.66,-0l-15,-0l0,-15.76l7.51,11.28l7.45,-11.4l0.04,15.88Zm12.66,-0l-6.86,-0l0,-24l6.86,-0l0,24Zm25.86,-0l-5.71,-0l0,-3.72l-14.39,-0l0,-5.66l12.48,-0l0,-5.07l-12.48,-0l0,-5.54l14.17,-0l0,-4l5.91,-0l0.02,23.99Zm10.78,-4l-5,-0l0,-15.72l4.35,-0c1.999,-0.052 3.953,0.6 5.52,1.84c1.339,1.192 2.217,2.817 2.48,4.59c0.345,1.951 -0.009,3.963 -1,5.68c-1.369,2.213 -3.778,3.58 -6.38,3.62l0.03,-0.01Zm19.51,4l-13.49,-0c3.715,-1.629 6.42,-4.96 7.25,-8.93c0.625,-2.941 0.274,-6.007 -1,-8.73c-1.44,-2.936 -3.943,-5.218 -7,-6.38l14.21,-0l0.03,24.04Zm13,-0l-7.14,-0l0,-24l7.14,-0l0,24Z" clip-rule="nonzero"/></clipPath><g clip-path="url(#_clip1)"><rect x="249.66" y="5.446" width="1.56" height="9.26"/><rect x="247.92" y="19.446" width="1.56" height="5.62"/><rect x="249.66" y="30.528" width="1.56" height="8.187"/><rect x="180.48" y="10.196" width="1.56" height="4.048"/><rect x="178.79" y="19.636" width="1.56" height="5.49"/><rect x="180.66" y="29.916" width="1.56" height="4.32"/><rect x="19.53" y="30.183" width="1.56" height="4.073"/></g><rect x="236.82" y="11.476" width="1.89" height="20.42" style="fill:#fff;"/><rect x="224.11" y="8.566" width="1.69" height="26.38" style="fill:#fff;"/><rect x="193.77" y="12.976" width="1.69" height="18.52" style="fill:#fff;"/><rect x="167.86" y="13.936" width="1.69" height="17.55" style="fill:#fff;"/><rect x="155.23" y="8.966" width="1.69" height="26.49" style="fill:#fff;"/><rect x="182.22" y="30.496" width="1.69" height="4.96" style="fill:#fff;"/><rect x="182.04" y="9.236" width="1.69" height="4.96" style="fill:#fff;"/><rect x="134.47" y="20.056" width="1.69" height="17.55" style="fill:#fff;"/><rect x="21.09" y="30.256" width="1.69" height="7.08" style="fill:#fff;"/><rect x="7.87" y="9.076" width="1.69" height="26.27" style="fill:#fff;"/></g></svg>